<?xml version="1.0" standalone="no"?>
<!DOCTYPE svg PUBLIC "-//W3C//DTD SVG 20010904//EN"
 "http://www.w3.org/TR/2001/REC-SVG-20010904/DTD/svg10.dtd">
<svg version="1.0" xmlns="http://www.w3.org/2000/svg"
 width="1440.000000pt" height="512.000000pt" viewBox="0 0 1440.000000 512.000000"
 preserveAspectRatio="xMidYMid meet">

<g transform="translate(0.000000,512.000000) scale(0.100000,-0.100000)"
fill="#000000" stroke="none">
<path d="M3150 3255 c-159 -25 -350 -90 -486 -166 l-71 -39 -382 0 c-280 0
-381 -3 -381 -12 0 -9 68 -528 99 -751 8 -56 6 -79 -9 -132 -36 -127 -53 -256
-53 -410 0 -279 65 -525 202 -765 l48 -85 27 -195 c15 -107 35 -255 45 -328
12 -89 22 -137 32 -143 8 -5 2426 -9 5871 -9 5311 0 5858 1 5872 16 20 20 20
38 0 58 -14 15 -485 16 -5027 17 -3684 0 -5005 3 -4987 11 233 104 366 193
520 348 250 250 389 532 435 878 62 467 -93 928 -425 1263 -246 249 -525 393
-860 444 -117 18 -355 18 -470 0z m402 -397 c32 -15 81 -50 108 -78 189 -188
133 -505 -108 -618 -50 -24 -69 -27 -162 -27 -95 0 -111 3 -162 28 -79 39
-143 104 -181 185 -29 61 -32 76 -32 162 0 83 3 102 28 155 46 98 124 168 236
211 61 23 204 13 273 -18z m-780 -758 c78 -29 160 -106 200 -188 31 -62 33
-74 33 -167 0 -93 -2 -105 -33 -167 -93 -189 -331 -271 -516 -176 -61 31 -140
111 -170 174 -71 145 -48 308 60 424 56 60 97 86 172 111 70 24 175 19 254
-11z m1543 -8 c88 -42 139 -91 181 -178 101 -203 20 -422 -192 -521 -51 -24
-71 -28 -149 -28 -80 1 -98 4 -157 32 -113 53 -191 152 -219 280 -25 110 19
252 106 338 113 113 285 144 430 77z m-847 -737 c99 -13 207 -94 261 -195 36
-67 52 -171 39 -248 -19 -114 -104 -224 -213 -278 -54 -26 -70 -29 -160 -29
-89 0 -107 3 -162 29 -122 56 -211 184 -221 315 -14 204 126 382 323 411 28 4
59 6 70 4 11 -1 39 -5 63 -9z"/>
<path d="M513 3028 c3 -13 87 -639 187 -1393 113 -847 188 -1379 197 -1392
l13 -23 326 0 c266 0 324 2 316 13 -6 7 -94 634 -197 1392 -102 759 -187 1390
-190 1403 l-5 22 -326 0 -326 0 5 -22z"/>
<path d="M5522 2345 c-95 -80 -260 -388 -308 -575 l-15 -61 27 -46 c15 -26
122 -144 238 -262 215 -221 294 -308 315 -349 15 -29 7 -69 -30 -148 -31 -65
-49 -80 -79 -64 -22 12 -120 130 -218 260 -105 141 -117 154 -135 147 -24 -9
-41 -81 -41 -177 -1 -105 14 -135 134 -262 130 -140 275 -248 331 -248 92 0
280 330 282 494 2 97 -66 203 -313 496 -191 226 -186 218 -171 285 16 70 91
223 125 255 l27 25 37 -20 c44 -24 47 -34 62 -190 20 -215 51 -305 104 -305
77 0 159 174 172 365 6 78 5 81 -27 129 -72 108 -313 261 -429 273 -50 5 -59
3 -88 -22z"/>
<path d="M10063 2329 c-50 -25 -128 -106 -151 -157 -13 -30 -16 -69 -14 -208
l2 -171 -78 -7 c-105 -9 -107 -12 -92 -75 15 -65 27 -77 87 -86 98 -14 89 -1
97 -143 13 -257 38 -578 47 -613 11 -43 83 -129 109 -129 12 0 20 10 24 33 12
70 28 315 34 557 l7 255 72 3 72 3 11 52 c5 29 11 77 13 107 l2 55 -82 3 -83
3 -1 152 c0 189 -12 364 -25 377 -6 6 -24 2 -51 -11z"/>
<path d="M11600 2280 c-87 -13 -88 -13 -95 -93 -11 -127 27 -1021 55 -1302 9
-83 17 -113 47 -173 40 -81 87 -129 108 -112 20 16 35 167 46 457 5 147 11
269 13 270 2 2 58 8 124 14 66 6 133 14 149 18 36 9 74 82 76 148 l2 48 -80
12 c-44 6 -124 14 -177 18 l-98 8 0 199 0 199 48 -6 c124 -15 233 -26 299 -32
71 -6 71 -6 86 23 20 40 53 149 61 207 7 45 6 48 -20 57 -72 28 -535 57 -644
40z"/>
<path d="M12441 2213 c-49 -24 -129 -106 -151 -155 -17 -38 -20 -66 -20 -233
0 -192 19 -573 45 -898 15 -196 28 -234 96 -291 39 -33 46 -33 53 2 35 170 60
1468 30 1570 -8 26 -9 26 -53 5z"/>
<path d="M10880 2117 c-53 -27 -88 -198 -97 -477 -8 -253 14 -458 74 -685 23
-88 31 -105 67 -140 42 -41 200 -125 269 -143 32 -9 40 -8 56 9 37 40 100 302
101 419 0 65 -17 120 -38 120 -38 0 -88 -57 -127 -147 -49 -111 -81 -163 -101
-163 -8 0 -23 19 -34 43 -30 69 -44 190 -43 372 1 189 22 337 69 488 25 81 29
87 54 87 54 0 59 -12 75 -188 21 -233 32 -271 71 -258 24 8 69 48 82 72 16 30
41 153 52 257 13 116 6 136 -73 198 -130 104 -376 177 -457 136z"/>
<path d="M6964 2065 c-11 -27 1 -154 61 -655 59 -495 81 -654 96 -682 19 -36
128 -74 142 -51 3 5 1 235 -3 513 -8 479 -7 506 10 540 24 48 43 62 76 58 63
-7 84 -86 84 -317 1 -188 18 -628 26 -653 7 -22 67 -41 118 -36 33 2 41 8 46
28 4 14 10 133 14 265 13 444 25 636 40 661 20 29 80 66 99 59 21 -8 38 -52
44 -110 3 -27 -2 -171 -11 -320 -9 -148 -19 -360 -22 -469 l-7 -199 33 7 c39
7 96 48 104 73 13 46 58 301 90 514 61 405 44 628 -55 701 -51 38 -196 16
-326 -50 l-42 -22 -21 35 c-54 88 -169 84 -305 -10 l-50 -35 -14 33 c-7 17
-17 42 -22 54 -10 28 -95 71 -154 80 -37 5 -46 3 -51 -12z"/>
<path d="M8986 2031 c-10 -66 16 -530 54 -961 23 -249 28 -288 41 -296 15 -9
74 33 105 74 l29 37 8 404 c5 288 11 411 20 429 14 31 83 73 112 70 48 -7 92
-139 80 -241 -9 -80 -35 -549 -35 -632 0 -47 5 -76 13 -83 17 -14 96 -32 112
-25 21 8 100 402 131 657 14 117 14 137 0 222 -18 108 -55 207 -95 255 -29 34
-30 34 -112 34 -70 0 -95 -5 -149 -28 -100 -44 -97 -44 -104 -2 -4 21 -18 48
-31 61 -30 30 -107 64 -145 64 -24 0 -28 -4 -34 -39z"/>
<path d="M10513 1996 c-70 -22 -111 -53 -122 -93 -19 -69 23 -186 72 -198 34
-9 103 12 127 38 23 24 46 95 56 168 12 91 -29 117 -133 85z"/>
<path d="M12796 1993 c-27 -9 -64 -32 -84 -50 -34 -32 -35 -35 -29 -91 9 -108
54 -159 126 -147 61 10 88 37 111 112 27 87 27 169 1 183 -27 14 -67 12 -125
-7z"/>
<path d="M8314 1986 c-45 -20 -71 -59 -99 -148 -29 -91 -62 -265 -52 -274 11
-11 89 -23 153 -24 l61 0 7 79 c7 93 31 173 57 197 40 36 150 -26 168 -94 5
-20 13 -95 17 -166 l7 -129 -24 6 c-57 14 -218 29 -261 24 -150 -18 -208 -121
-187 -332 17 -170 33 -206 110 -246 87 -44 255 -44 355 0 47 21 54 16 54 -35
0 -28 96 -134 122 -134 19 0 22 38 39 497 12 320 9 478 -11 547 -23 76 -143
167 -287 217 -77 26 -188 34 -229 15z m295 -679 c24 -11 26 -17 29 -94 4 -105
-10 -135 -73 -158 -68 -27 -184 -7 -200 33 -3 8 -8 48 -12 88 -7 82 7 130 41
145 28 12 182 2 215 -14z"/>
<path d="M13715 1940 c-59 -12 -141 -47 -190 -80 -43 -30 -73 -70 -142 -198
l-40 -73 -71 146 c-94 192 -106 209 -145 201 -72 -15 -130 -78 -119 -133 3
-14 53 -122 112 -239 l108 -214 -95 -208 c-107 -232 -119 -279 -83 -325 39
-49 55 -36 167 133 56 85 108 163 115 173 12 15 21 3 88 -114 59 -104 86 -141
125 -172 57 -45 112 -74 122 -64 11 11 -32 135 -123 351 -46 109 -84 203 -84
208 0 5 39 75 86 156 177 300 255 466 217 461 -4 -1 -26 -5 -48 -9z"/>
<path d="M6470 1835 c-88 -24 -176 -72 -214 -117 -70 -82 -91 -198 -91 -508 0
-293 14 -402 56 -441 67 -62 288 -126 401 -116 131 12 169 66 220 317 30 143
29 145 -78 136 -48 -3 -90 -9 -95 -12 -5 -3 -9 -26 -9 -52 0 -63 -26 -179 -46
-210 -14 -22 -21 -24 -65 -20 -54 6 -114 44 -129 83 -8 22 -30 123 -44 205
l-6 36 156 28 c86 15 195 37 243 49 l86 22 -1 195 c-1 347 -37 411 -239 417
-58 2 -110 -3 -145 -12z m129 -231 c36 -7 46 -34 57 -149 l6 -70 -152 -53
c-83 -30 -154 -52 -157 -49 -2 3 -5 57 -6 119 -2 95 1 118 16 142 35 53 138
79 236 60z"/>
<path d="M10519 1621 c-37 -12 -71 -31 -96 -54 -22 -19 -23 -28 -23 -162 0
-205 24 -500 51 -619 l12 -48 45 5 c62 7 88 37 96 114 28 256 36 739 14 761
-13 13 -59 14 -99 3z"/>
<path d="M12798 1615 c-56 -20 -85 -43 -99 -76 -26 -63 22 -734 56 -790 10
-16 69 -10 101 10 25 15 33 28 38 63 14 99 27 298 33 528 5 224 5 247 -11 263
-20 20 -66 21 -118 2z"/>
</g>
</svg>
